<svg xmlns="http://www.w3.org/2000/svg" width="21" height="21" viewBox="0 0 21 21" fill="none">
  <g clip-path="url(#clip0_2_1091)">
    <path fill-rule="evenodd" clip-rule="evenodd" d="M0.519989 4.59143C0.519989 2.99128 0.519989 2.1912 0.831399 1.58003C1.10532 1.04242 1.54241 0.605338 2.08002 0.331414C2.69119 0.0200043 3.49127 0.0200043 5.09142 0.0200043H15.9486C17.5487 0.0200043 18.3488 0.0200043 18.96 0.331414C19.4976 0.605338 19.9347 1.04242 20.2086 1.58003C20.52 2.1912 20.52 2.99128 20.52 4.59143V15.4486C20.52 17.0487 20.52 17.8488 20.2086 18.46C19.9347 18.9976 19.4976 19.4347 18.96 19.7086C18.3488 20.02 17.5487 20.02 15.9486 20.02H5.09142C3.49127 20.02 2.69119 20.02 2.08002 19.7086C1.54241 19.4347 1.10532 18.9976 0.831399 18.46C0.519989 17.8488 0.519989 17.0487 0.519989 15.4486V4.59143Z" fill="#51351C"/>
    <path fill-rule="evenodd" clip-rule="evenodd" d="M6.76999 9.60333L5.51999 10.8533L8.85332 14.1867L16.3533 7.10333L15.1033 5.85333L8.85332 11.6867L6.76999 9.60333Z" fill="white"/>
  </g>
  <defs>
    <clipPath id="clip0_2_1091">
      <rect width="20" height="20" fill="white" transform="translate(0.519989 0.0200043)"/>
    </clipPath>
  </defs>
</svg>