<?xml version="1.0" encoding="UTF-8"?>
<!DOCTYPE svg PUBLIC "-//W3C//DTD SVG 1.1//EN" "http://www.w3.org/Graphics/SVG/1.1/DTD/svg11.dtd">
<svg xmlns="http://www.w3.org/2000/svg" version="1.1" width="240px" height="210px" style="shape-rendering:geometricPrecision; text-rendering:geometricPrecision; image-rendering:optimizeQuality; fill-rule:evenodd; clip-rule:evenodd" xmlns:xlink="http://www.w3.org/1999/xlink">
<g><path style="opacity:1" fill="#51351d" d="M 164.5,0.5 C 164.833,0.5 165.167,0.5 165.5,0.5C 171.631,-0.0921528 177.464,0.574514 183,2.5C 183.333,2.16667 183.667,1.83333 184,1.5C 188.408,2.75828 192.742,4.09161 197,5.5C 198.626,5.14595 200.459,5.14595 202.5,5.5C 202.343,6.87344 202.51,8.20677 203,9.5C 205.456,11.2105 208.123,12.5438 211,13.5C 211.333,13.1667 211.667,12.8333 212,12.5C 212.483,13.448 212.649,14.448 212.5,15.5C 213.833,15.5 215.167,15.5 216.5,15.5C 216.481,20.016 218.814,22.016 223.5,21.5C 223.178,23.7224 223.845,25.5557 225.5,27C 225.167,27.3333 224.833,27.6667 224.5,28C 227.158,31.6245 229.991,35.1245 233,38.5C 237.263,43.7548 237.43,49.0881 233.5,54.5C 234,54.8333 234.5,55.1667 235,55.5C 236.011,55.1081 236.511,54.4415 236.5,53.5C 237.265,54.6119 238.265,55.2786 239.5,55.5C 239.5,60.8333 239.5,66.1667 239.5,71.5C 238.331,75.1434 236.998,78.8101 235.5,82.5C 234.732,81.7375 234.232,80.7375 234,79.5C 233.505,81.4727 233.338,83.4727 233.5,85.5C 232.5,85.5 231.5,85.5 230.5,85.5C 230.007,87.8056 229.674,90.139 229.5,92.5C 228.448,92.3505 227.448,92.5172 226.5,93C 226.833,93.3333 227.167,93.6667 227.5,94C 226.107,95.1711 225.273,96.6711 225,98.5C 224.667,98.1667 224.333,97.8333 224,97.5C 223.167,99 222,100.167 220.5,101C 221.756,101.417 222.423,102.25 222.5,103.5C 221.2,106.432 219.2,108.766 216.5,110.5C 215.5,110.5 214.5,110.5 213.5,110.5C 213.5,111.5 213.5,112.5 213.5,113.5C 209.728,114.274 207.728,116.607 207.5,120.5C 203.286,120.807 201.286,123.14 201.5,127.5C 198.5,131.167 195.167,134.5 191.5,137.5C 189.54,138.138 187.707,138.138 186,137.5C 184.883,138.949 184.216,140.616 184,142.5C 181.126,143.532 179.626,145.532 179.5,148.5C 176.5,148.167 175.167,149.5 175.5,152.5C 174.127,152.343 172.793,152.51 171.5,153C 171.833,153.333 172.167,153.667 172.5,154C 170.442,156.923 167.775,159.09 164.5,160.5C 161.975,164.685 158.309,167.352 153.5,168.5C 153.676,170.796 153.342,173.129 152.5,175.5C 151.5,177.167 150.167,178.5 148.5,179.5C 147.85,179.196 147.183,178.863 146.5,178.5C 145.059,179.865 143.726,181.365 142.5,183C 140.833,183.333 139.167,183.667 137.5,184C 134.667,187.331 133,191.164 132.5,195.5C 132.167,196.5 131.5,197.167 130.5,197.5C 129.167,197.5 127.833,197.5 126.5,197.5C 126.5,198.5 126.5,199.5 126.5,200.5C 124.5,201.167 122.5,201.833 120.5,202.5C 120.5,203.833 120.5,205.167 120.5,206.5C 118.167,205.833 115.833,205.167 113.5,204.5C 113.611,203.883 113.944,203.383 114.5,203C 111.337,201.52 109.504,199.02 109,195.5C 107.238,192.732 104.738,191.232 101.5,191C 100.359,190.259 100.359,189.425 101.5,188.5C 100.5,187.5 99.5,186.5 98.5,185.5C 96.9974,186.052 95.3307,186.052 93.5,185.5C 93.25,182.491 91.4166,180.158 88,178.5C 85.8448,175.013 83.5115,171.68 81,168.5C 79.8173,169.731 78.6507,169.731 77.5,168.5C 76.1487,166.981 74.6487,165.648 73,164.5C 72.5172,163.552 72.3505,162.552 72.5,161.5C 70.8333,161.5 69.1667,161.5 67.5,161.5C 46.2314,144.242 28.2314,124.242 13.5,101.5C 13.0522,98.3245 12.0522,95.3245 10.5,92.5C 11.4012,85.9234 8.73451,81.2568 2.5,78.5C 1.49049,75.0764 0.490491,71.7431 -0.5,68.5C -0.5,60.1667 -0.5,51.8333 -0.5,43.5C 1.50098,36.1615 4.83432,29.4948 9.5,23.5C 12.665,22.2472 14.9984,20.0805 16.5,17C 22.1386,13.8458 27.8053,10.6791 33.5,7.5C 35.2882,6.71745 36.2882,5.38411 36.5,3.5C 36.8333,3.5 37.1667,3.5 37.5,3.5C 38.8845,4.80086 40.3845,4.80086 42,3.5C 43.3159,6.02797 44.4826,6.02797 45.5,3.5C 48.5639,2.47513 51.8972,2.47513 55.5,3.5C 56.8524,2.1038 58.5191,1.43713 60.5,1.5C 67.7035,3.03245 74.7035,4.03245 81.5,4.5C 81.8333,4.5 82.1667,4.5 82.5,4.5C 83.0283,5.72065 83.695,6.88732 84.5,8C 87.7723,8.43654 89.439,10.2699 89.5,13.5C 87.5714,13.2308 85.9047,13.7308 84.5,15C 86.1796,15.0343 87.6796,15.201 89,15.5C 90.0437,14.3774 90.7104,13.0441 91,11.5C 95.4767,13.8192 98.9767,17.1526 101.5,21.5C 103.434,21.9005 104.934,22.9005 106,24.5C 106.278,23.5842 106.778,22.9175 107.5,22.5C 111.167,25.8333 114.833,29.1667 118.5,32.5C 122.971,32.2143 126.304,30.0476 128.5,26C 133.088,24.2475 136.088,21.0809 137.5,16.5C 138.5,16.5 139.5,16.5 140.5,16.5C 140.33,15.1779 140.663,14.0113 141.5,13C 145.619,10.2739 149.952,8.10724 154.5,6.5C 154.5,5.5 154.5,4.5 154.5,3.5C 158.074,4.86857 160.907,4.2019 163,1.5C 164.107,2.7119 164.607,2.37857 164.5,0.5 Z"/></g>
<g><path style="opacity:1" fill="#5d4735" d="M 52.5,-0.5 C 56.1667,-0.5 59.8333,-0.5 63.5,-0.5C 69.7343,0.225919 75.7343,1.89259 81.5,4.5C 74.7035,4.03245 67.7035,3.03245 60.5,1.5C 58.5191,1.43713 56.8524,2.1038 55.5,3.5C 51.8972,2.47513 48.5639,2.47513 45.5,3.5C 44.4826,6.02797 43.3159,6.02797 42,3.5C 40.3845,4.80086 38.8845,4.80086 37.5,3.5C 42.377,1.6587 47.377,0.325369 52.5,-0.5 Z"/></g>
<g><path style="opacity:1" fill="#614c3b" d="M 164.5,0.5 C 164.607,2.37857 164.107,2.7119 163,1.5C 160.907,4.2019 158.074,4.86857 154.5,3.5C 157.505,1.7234 160.838,0.723405 164.5,0.5 Z"/></g>
<g><path style="opacity:1" fill="#624a37" d="M 165.5,0.5 C 165.5,0.166667 165.5,-0.166667 165.5,-0.5C 172.167,-0.5 178.833,-0.5 185.5,-0.5C 191.424,0.697227 197.09,2.69723 202.5,5.5C 200.459,5.14595 198.626,5.14595 197,5.5C 192.742,4.09161 188.408,2.75828 184,1.5C 183.667,1.83333 183.333,2.16667 183,2.5C 177.464,0.574514 171.631,-0.0921528 165.5,0.5 Z"/></g>
<g><path style="opacity:1" fill="#543e2b" d="M 36.5,3.5 C 36.2882,5.38411 35.2882,6.71745 33.5,7.5C 27.8053,10.6791 22.1386,13.8458 16.5,17C 14.9984,20.0805 12.665,22.2472 9.5,23.5C 16.192,13.8199 25.192,7.15325 36.5,3.5 Z"/></g>
<g><path style="opacity:1" fill="#553f2c" d="M 82.5,4.5 C 92.0777,8.78726 100.411,14.7873 107.5,22.5C 106.778,22.9175 106.278,23.5842 106,24.5C 104.934,22.9005 103.434,21.9005 101.5,21.5C 98.9767,17.1526 95.4767,13.8192 91,11.5C 90.7104,13.0441 90.0437,14.3774 89,15.5C 87.6796,15.201 86.1796,15.0343 84.5,15C 85.9047,13.7308 87.5714,13.2308 89.5,13.5C 89.439,10.2699 87.7723,8.43654 84.5,8C 83.695,6.88732 83.0283,5.72065 82.5,4.5 Z"/></g>
<g><path style="opacity:1" fill="#543c29" d="M 154.5,3.5 C 154.5,4.5 154.5,5.5 154.5,6.5C 149.952,8.10724 145.619,10.2739 141.5,13C 140.663,14.0113 140.33,15.1779 140.5,16.5C 139.5,16.5 138.5,16.5 137.5,16.5C 136.088,21.0809 133.088,24.2475 128.5,26C 126.304,30.0476 122.971,32.2143 118.5,32.5C 126.365,23.4678 135.032,15.3011 144.5,8C 147.736,6.21377 151.07,4.71377 154.5,3.5 Z"/></g>
<g><path style="opacity:1" fill="#563d29" d="M 202.5,5.5 C 216.318,11.4821 226.818,21.1488 234,34.5C 236.308,39.4466 238.141,44.4466 239.5,49.5C 239.5,51.5 239.5,53.5 239.5,55.5C 238.265,55.2786 237.265,54.6119 236.5,53.5C 236.511,54.4415 236.011,55.1081 235,55.5C 234.5,55.1667 234,54.8333 233.5,54.5C 237.43,49.0881 237.263,43.7548 233,38.5C 229.991,35.1245 227.158,31.6245 224.5,28C 224.833,27.6667 225.167,27.3333 225.5,27C 223.845,25.5557 223.178,23.7224 223.5,21.5C 218.814,22.016 216.481,20.016 216.5,15.5C 215.167,15.5 213.833,15.5 212.5,15.5C 212.649,14.448 212.483,13.448 212,12.5C 211.667,12.8333 211.333,13.1667 211,13.5C 208.123,12.5438 205.456,11.2105 203,9.5C 202.51,8.20677 202.343,6.87344 202.5,5.5 Z"/></g>
<g><path style="opacity:1" fill="#5b4330" d="M 2.5,78.5 C 8.73451,81.2568 11.4012,85.9234 10.5,92.5C 12.0522,95.3245 13.0522,98.3245 13.5,101.5C 8.52233,94.5419 4.85566,86.8752 2.5,78.5 Z"/></g>
<g><path style="opacity:1" fill="#5e4835" d="M 235.5,82.5 C 232.347,90.3004 228.014,97.3004 222.5,103.5C 222.423,102.25 221.756,101.417 220.5,101C 222,100.167 223.167,99 224,97.5C 224.333,97.8333 224.667,98.1667 225,98.5C 225.273,96.6711 226.107,95.1711 227.5,94C 227.167,93.6667 226.833,93.3333 226.5,93C 227.448,92.5172 228.448,92.3505 229.5,92.5C 229.674,90.139 230.007,87.8056 230.5,85.5C 231.5,85.5 232.5,85.5 233.5,85.5C 233.338,83.4727 233.505,81.4727 234,79.5C 234.232,80.7375 234.732,81.7375 235.5,82.5 Z"/></g>
<g><path style="opacity:1" fill="#5d4736" d="M 216.5,110.5 C 211.865,116.469 206.865,122.136 201.5,127.5C 201.286,123.14 203.286,120.807 207.5,120.5C 207.728,116.607 209.728,114.274 213.5,113.5C 213.5,112.5 213.5,111.5 213.5,110.5C 214.5,110.5 215.5,110.5 216.5,110.5 Z"/></g>
<g><path style="opacity:1" fill="#584231" d="M 191.5,137.5 C 179.136,150.865 166.136,163.532 152.5,175.5C 153.342,173.129 153.676,170.796 153.5,168.5C 158.309,167.352 161.975,164.685 164.5,160.5C 167.775,159.09 170.442,156.923 172.5,154C 172.167,153.667 171.833,153.333 171.5,153C 172.793,152.51 174.127,152.343 175.5,152.5C 175.167,149.5 176.5,148.167 179.5,148.5C 179.626,145.532 181.126,143.532 184,142.5C 184.216,140.616 184.883,138.949 186,137.5C 187.707,138.138 189.54,138.138 191.5,137.5 Z"/></g>
<g><path style="opacity:1" fill="#533e2a" d="M 67.5,161.5 C 69.1667,161.5 70.8333,161.5 72.5,161.5C 72.3505,162.552 72.5172,163.552 73,164.5C 74.6487,165.648 76.1487,166.981 77.5,168.5C 78.6507,169.731 79.8173,169.731 81,168.5C 83.5115,171.68 85.8448,175.013 88,178.5C 91.4166,180.158 93.25,182.491 93.5,185.5C 84.5069,177.84 75.8403,169.84 67.5,161.5 Z"/></g>
<g><path style="opacity:1" fill="#573f2d" d="M 148.5,179.5 C 143.5,185.167 138.167,190.5 132.5,195.5C 133,191.164 134.667,187.331 137.5,184C 139.167,183.667 140.833,183.333 142.5,183C 143.726,181.365 145.059,179.865 146.5,178.5C 147.183,178.863 147.85,179.196 148.5,179.5 Z"/></g>
<g><path style="opacity:1" fill="#523c28" d="M 93.5,185.5 C 95.3307,186.052 96.9974,186.052 98.5,185.5C 99.5,186.5 100.5,187.5 101.5,188.5C 100.359,189.425 100.359,190.259 101.5,191C 104.738,191.232 107.238,192.732 109,195.5C 109.504,199.02 111.337,201.52 114.5,203C 113.944,203.383 113.611,203.883 113.5,204.5C 106.409,198.62 99.742,192.286 93.5,185.5 Z"/></g>
<g><path style="opacity:1" fill="#644d3b" d="M 130.5,197.5 C 126.833,201.5 123.167,205.5 119.5,209.5C 118.833,209.5 118.167,209.5 117.5,209.5C 116.167,207.833 114.833,206.167 113.5,204.5C 115.833,205.167 118.167,205.833 120.5,206.5C 120.5,205.167 120.5,203.833 120.5,202.5C 122.5,201.833 124.5,201.167 126.5,200.5C 126.5,199.5 126.5,198.5 126.5,197.5C 127.833,197.5 129.167,197.5 130.5,197.5 Z"/></g>
</svg>
